<mxfile host="app.diagrams.net" modified="2024-06-26T14:43:50.063Z" agent="Mozilla/5.0 (Windows NT 10.0; Win64; x64) AppleWebKit/537.36 (KHTML, like Gecko) Chrome/126.0.0.0 Safari/537.36 Edg/126.0.0.0" etag="1gBII6lPGzwW7VtXQwnI" version="24.6.3" type="device">
  <diagram name="第 1 页" id="VjdwgdWZw7TrfWxXI8fo">
    <mxGraphModel dx="948" dy="553" grid="1" gridSize="10" guides="1" tooltips="1" connect="1" arrows="1" fold="1" page="1" pageScale="1" pageWidth="827" pageHeight="1169" math="0" shadow="0">
      <root>
        <mxCell id="0" />
        <mxCell id="1" parent="0" />
        <mxCell id="HZayAwlOVF8K5Yy_4hMK-4" style="edgeStyle=orthogonalEdgeStyle;rounded=0;orthogonalLoop=1;jettySize=auto;html=1;exitX=0.5;exitY=1;exitDx=0;exitDy=0;" edge="1" parent="1" source="HZayAwlOVF8K5Yy_4hMK-1" target="HZayAwlOVF8K5Yy_4hMK-5">
          <mxGeometry relative="1" as="geometry">
            <mxPoint x="290" y="270" as="targetPoint" />
          </mxGeometry>
        </mxCell>
        <mxCell id="HZayAwlOVF8K5Yy_4hMK-1" value="Extract feature data and categories" style="rounded=1;whiteSpace=wrap;html=1;fillColor=#d5e8d4;strokeColor=#82b366;" vertex="1" parent="1">
          <mxGeometry x="230" y="190" width="120" height="60" as="geometry" />
        </mxCell>
        <mxCell id="HZayAwlOVF8K5Yy_4hMK-3" style="edgeStyle=orthogonalEdgeStyle;rounded=0;orthogonalLoop=1;jettySize=auto;html=1;entryX=0.5;entryY=0;entryDx=0;entryDy=0;" edge="1" parent="1" source="HZayAwlOVF8K5Yy_4hMK-2" target="HZayAwlOVF8K5Yy_4hMK-1">
          <mxGeometry relative="1" as="geometry" />
        </mxCell>
        <mxCell id="HZayAwlOVF8K5Yy_4hMK-2" value="load data" style="ellipse;shape=cloud;whiteSpace=wrap;html=1;fillColor=#d5e8d4;strokeColor=#82b366;" vertex="1" parent="1">
          <mxGeometry x="230" y="70" width="120" height="80" as="geometry" />
        </mxCell>
        <mxCell id="HZayAwlOVF8K5Yy_4hMK-6" style="edgeStyle=orthogonalEdgeStyle;rounded=0;orthogonalLoop=1;jettySize=auto;html=1;exitX=0.5;exitY=1;exitDx=0;exitDy=0;" edge="1" parent="1" source="HZayAwlOVF8K5Yy_4hMK-5" target="HZayAwlOVF8K5Yy_4hMK-7">
          <mxGeometry relative="1" as="geometry">
            <mxPoint x="290" y="360" as="targetPoint" />
          </mxGeometry>
        </mxCell>
        <mxCell id="HZayAwlOVF8K5Yy_4hMK-5" value="Scale the feature data using MinMaxScaler&amp;nbsp;" style="rounded=1;whiteSpace=wrap;html=1;fillColor=#d5e8d4;strokeColor=#82b366;" vertex="1" parent="1">
          <mxGeometry x="220" y="280" width="140" height="60" as="geometry" />
        </mxCell>
        <mxCell id="HZayAwlOVF8K5Yy_4hMK-8" style="edgeStyle=orthogonalEdgeStyle;rounded=0;orthogonalLoop=1;jettySize=auto;html=1;exitX=1;exitY=0.5;exitDx=0;exitDy=0;" edge="1" parent="1" source="HZayAwlOVF8K5Yy_4hMK-7" target="HZayAwlOVF8K5Yy_4hMK-9">
          <mxGeometry relative="1" as="geometry">
            <mxPoint x="430" y="390" as="targetPoint" />
          </mxGeometry>
        </mxCell>
        <mxCell id="HZayAwlOVF8K5Yy_4hMK-7" value="NMF Model Training and Clustering" style="rounded=1;whiteSpace=wrap;html=1;fillColor=#d5e8d4;strokeColor=#82b366;" vertex="1" parent="1">
          <mxGeometry x="230" y="370" width="120" height="60" as="geometry" />
        </mxCell>
        <mxCell id="HZayAwlOVF8K5Yy_4hMK-10" style="edgeStyle=orthogonalEdgeStyle;rounded=0;orthogonalLoop=1;jettySize=auto;html=1;exitX=0.5;exitY=0;exitDx=0;exitDy=0;" edge="1" parent="1" source="HZayAwlOVF8K5Yy_4hMK-9" target="HZayAwlOVF8K5Yy_4hMK-11">
          <mxGeometry relative="1" as="geometry">
            <mxPoint x="560" y="320" as="targetPoint" />
          </mxGeometry>
        </mxCell>
        <mxCell id="HZayAwlOVF8K5Yy_4hMK-9" value="Calculate the Silhouette Coefficient for each clustering result" style="rounded=1;whiteSpace=wrap;html=1;fillColor=#d5e8d4;strokeColor=#82b366;" vertex="1" parent="1">
          <mxGeometry x="414" y="370" width="120" height="60" as="geometry" />
        </mxCell>
        <mxCell id="HZayAwlOVF8K5Yy_4hMK-13" style="edgeStyle=orthogonalEdgeStyle;rounded=0;orthogonalLoop=1;jettySize=auto;html=1;" edge="1" parent="1" source="HZayAwlOVF8K5Yy_4hMK-11" target="HZayAwlOVF8K5Yy_4hMK-12">
          <mxGeometry relative="1" as="geometry" />
        </mxCell>
        <mxCell id="HZayAwlOVF8K5Yy_4hMK-11" value="Update and record the best Silhouette Coefficient" style="rounded=1;whiteSpace=wrap;html=1;fillColor=#d5e8d4;strokeColor=#82b366;" vertex="1" parent="1">
          <mxGeometry x="520" y="270" width="120" height="60" as="geometry" />
        </mxCell>
        <mxCell id="HZayAwlOVF8K5Yy_4hMK-12" value="Results Display and Evaluation" style="rounded=1;whiteSpace=wrap;html=1;fillColor=#d5e8d4;strokeColor=#82b366;" vertex="1" parent="1">
          <mxGeometry x="520" y="180" width="120" height="60" as="geometry" />
        </mxCell>
      </root>
    </mxGraphModel>
  </diagram>
</mxfile>
